<?xml version="1.0" encoding="UTF-8"?>
<svg width="20" height="20" viewBox="0 0 20 20" fill="none" xmlns="http://www.w3.org/2000/svg">
    <path d="M13 6H17L19 9V14H17M13 6V14H17M13 6H3V14H13M17 14C17 15.1046 16.1046 16 15 16C13.8954 16 13 15.1046 13 14M17 14C17 15.1046 17.8954 16 19 16C20.1046 16 21 15.1046 21 14M6 14C6 15.1046 5.10457 16 4 16C2.89543 16 2 15.1046 2 14C2 12.8954 2.89543 12 4 12C5.10457 12 6 12.8954 6 14Z" stroke="currentColor" stroke-width="1.5" stroke-linecap="round" stroke-linejoin="round"/>
</svg> 